# ASF file generated by Tido's ASF writer for MATLAB.
:version 1.10
:name VICON
:units
  mass 1
  length 0.45000000000000001
  angle deg
:documentation
   .ast/.asf automatically generated from VICON data using
   VICON BodyBuilder and BodyLanguage model FoxedUp or BRILLIANT.MOD
:root
  axis xyz
  order tx ty tz rx ry rz 
  position 0 0 0
  orientation 0 0 0
:bonedata
  begin
    id 1
    name lhipjoint
    direction 0.44017800000000001 -0.82263900000000001 0.359871
    length 1.1390085000000001
    axis 0 0 0 xyz
  end
  begin
    id 2
    name lfemur
    direction 0.34201999999999999 -0.939693 0
    length 3.5465939999999998
    axis 0 0 20 xyz
    dof rx ry rz 
    limits (-160 20)
           (-70 70)
           (-60 70)
  end
  begin
    id 3
    name ltibia
    direction 0.34201999999999999 -0.939693 0
    length 3.7970234999999999
    axis 0 0 20 xyz
    dof rx 
    limits (-10 170)
  end
  begin
    id 4
    name lfoot
    direction 0.088635099999999994 -0.24352299999999999 0.96583699999999995
    length 1.1853629999999999
    axis -90 7.62852e-016 20 xyz
    dof rx rz 
    limits (-45 90)
           (-70 20)
  end
  begin
    id 5
    name ltoes
    direction 1.53703e-011 -4.2171700000000001e-011 1
    length 0.59142150000000004
    axis -90 7.62852e-016 20 xyz
    dof rx 
    limits (-90 20)
  end
  begin
    id 6
    name rhipjoint
    direction -0.399779 -0.83977299999999999 0.367367
    length 1.115766
    axis 0 0 0 xyz
  end
  begin
    id 7
    name rfemur
    direction -0.34201999999999999 -0.939693 0
    length 3.4866269999999999
    axis 0 0 -20 xyz
    dof rx ry rz 
    limits (-160 20)
           (-70 70)
           (-70 60)
  end
  begin
    id 8
    name rtibia
    direction -0.34201999999999999 -0.939693 0
    length 3.9349440000000002
    axis 0 0 -20 xyz
    dof rx 
    limits (-10 170)
  end
  begin
    id 9
    name rfoot
    direction -0.108514 -0.29813899999999999 0.94833400000000001
    length 1.1974590000000001
    axis -90 -7.62852e-016 -20 xyz
    dof rx rz 
    limits (-45 90)
           (-20 70)
  end
  begin
    id 10
    name rtoes
    direction -1.5339199999999999e-011 -4.2207699999999999e-011 1
    length 0.59392350000000005
    axis -90 -7.62852e-016 -20 xyz
    dof rx 
    limits (-90 20)
  end
  begin
    id 11
    name lowerback
    direction 0.011325699999999999 0.99986600000000003 0.0118602
    length 1.164123
    axis 0 0 0 xyz
    dof rx ry rz 
    limits (-20 45)
           (-30 30)
           (-30 30)
  end
  begin
    id 12
    name upperback
    direction -0.016474699999999998 0.99519299999999999 -0.096537499999999998
    length 1.135656
    axis 0 0 0 xyz
    dof rx ry rz 
    limits (-20 45)
           (-30 30)
           (-30 30)
  end
  begin
    id 13
    name thorax
    direction -0.019430099999999999 0.99433000000000005 -0.10455200000000001
    length 1.1524455
    axis 0 0 0 xyz
    dof rx ry rz 
    limits (-20 45)
           (-30 30)
           (-30 30)
  end
  begin
    id 14
    name lowerneck
    direction 0.014854300000000001 0.995587 -0.092657000000000003
    length 0.772119
    axis 0 0 0 xyz
    dof rx ry rz 
    limits (-20 45)
           (-30 30)
           (-30 30)
  end
  begin
    id 15
    name upperneck
    direction -0.0135467 0.99365599999999998 -0.111639
    length 0.76021650000000007
    axis 0 0 0 xyz
    dof rx ry rz 
    limits (-20 45)
           (-30 30)
           (-30 30)
  end
  begin
    id 16
    name head
    direction -0.0061534900000000002 0.99954699999999996 -0.029447999999999998
    length 0.78578999999999999
    axis 0 0 0 xyz
    dof rx ry rz 
    limits (-20 45)
           (-30 30)
           (-30 30)
  end
  begin
    id 17
    name lclavicle
    direction 0.98826700000000001 0.14988499999999999 0.029371299999999999
    length 2.012499
    axis 0 0 0 xyz
    dof ry rz 
    limits (-20 10)
           (0 20)
  end
  begin
    id 18
    name lhumerus
    direction 1 -4.4898600000000001e-011 -1.1483300000000001e-027
    length 2.4171659999999999
    axis 180 -30 -90 xyz
    dof rx ry rz 
    limits (-60 90)
           (-90 90)
           (-90 90)
  end
  begin
    id 19
    name lradius
    direction 0.99999800000000005 0.00170963 -0.00098705499999999992
    length 1.773954
    axis 180 -30 -90 xyz
    dof rx 
    limits (-10 170)
  end
  begin
    id 20
    name lwrist
    direction 0.99999800000000005 7.53149e-005 -0.00194706
    length 0.88697700000000002
    axis 4.6505600000000004e-015 90 90 xyz
    dof ry 
    limits (-180 0)
  end
  begin
    id 21
    name lhand
    direction 1 -4.48973e-011 -1.3174599999999999e-026
    length 0.5306265
    axis 8.4064999999999996e-015 90 90 xyz
    dof rx rz 
    limits (-90 90)
           (-45 45)
  end
  begin
    id 22
    name lfingers
    direction 1 -4.49107e-011 -2.6349199999999999e-026
    length 0.42780555000000003
    axis 1.6812999999999999e-014 90 90 xyz
    dof rx 
    limits (0 90)
  end
  begin
    id 23
    name lthumb
    direction 0.70710700000000004 -6.3504800000000005e-011 0.70710700000000004
    length 0.6142455
    axis -90 45 2.8529899999999998e-015 xyz
    dof rx rz 
    limits (-45 45)
           (-45 45)
  end
  begin
    id 24
    name rclavicle
    direction -0.996699 0.064289499999999999 -0.049572499999999999
    length 2.0817494999999999
    axis 0 0 0 xyz
    dof ry rz 
    limits (-10 20)
           (-20 0)
  end
  begin
    id 25
    name rhumerus
    direction -1 -4.4891899999999998e-011 -2.4105900000000001e-027
    length 2.474145
    axis 180 30 90 xyz
    dof rx ry rz 
    limits (-90 60)
           (-90 90)
           (-90 90)
  end
  begin
    id 26
    name rradius
    direction -0.99999899999999997 0.0011810099999999999 -0.00068185800000000003
    length 1.5677145000000001
    axis 180 30 90 xyz
    dof rx 
    limits (-10 170)
  end
  begin
    id 27
    name rwrist
    direction -0.99999899999999997 0.000321823 -0.00132288
    length 0.78385499999999997
    axis 4.6505600000000004e-015 -90 -90 xyz
    dof ry 
    limits (-180 0)
  end
  begin
    id 28
    name rhand
    direction -1 -4.4902199999999998e-011 -1.3174599999999999e-026
    length 0.60719400000000001
    axis 8.4064999999999996e-015 -90 -90 xyz
    dof rx rz 
    limits (-90 90)
           (-45 45)
  end
  begin
    id 29
    name rfingers
    direction -1 -4.4917800000000002e-011 -2.6349199999999999e-026
    length 0.48953249999999998
    axis 1.6812999999999999e-014 -90 -90 xyz
    dof rx 
    limits (0 90)
  end
  begin
    id 30
    name rthumb
    direction -0.70710700000000004 -6.3471300000000002e-011 0.70710700000000004
    length 0.70287750000000004
    axis -90 -45 -2.8529899999999998e-015 xyz
    dof rx rz 
    limits (-45 45)
           (-45 45)
  end
:hierarchy
begin
  root lhipjoint rhipjoint lowerback 
  lhipjoint lfemur 
  lfemur ltibia 
  ltibia lfoot 
  lfoot ltoes 
  rhipjoint rfemur 
  rfemur rtibia 
  rtibia rfoot 
  rfoot rtoes 
  lowerback upperback 
  upperback thorax 
  thorax lowerneck lclavicle rclavicle 
  lowerneck upperneck 
  upperneck head 
  lclavicle lhumerus 
  lhumerus lradius 
  lradius lwrist 
  lwrist lhand lthumb 
  lhand lfingers 
  rclavicle rhumerus 
  rhumerus rradius 
  rradius rwrist 
  rwrist rhand rthumb 
  rhand rfingers 
end

# AMC file generated by Tido's AMC writer for MATLAB on 27-Nov-2005 at 18:24:20
# Corresponding ASF file: S:\data_MoCap\MoCaDaDB\HDM\Bonn_ASF_AMC_Use IK_on\björn\bjorn.asf
# Number of frames: 542
# Sampling rate: 120
:fully-specified
:degrees
407
root 12.11355 8.2895849999999989 -6.162795 0.454428 29.2744 364.375 
lfemur 24.134699999999999 5.31724 -16.607399999999998 
ltibia 18.015899999999998 
lfoot -6.75936 -10.3742 
ltoes -28.545400000000001 
rfemur -36.567599999999999 -14.768700000000001 20.400700000000001 
rtibia 40.660600000000002 
rfoot -5.9384199999999998 3.7948400000000002 
rtoes -5.2951800000000002 
lowerback -5.6092500000000003 -1.6160099999999999 -0.49765900000000002 
upperback 10.324400000000001 -1.9733499999999999 -0.63664799999999999 
thorax 14.4834 -0.90224400000000005 -0.77131700000000003 
lowerneck 1.4275 -3.16018 -1.02877 
upperneck 17.3019 -4.85121 5.1091699999999998 
head 5.1099699999999997 -2.0849700000000002 1.5717399999999999 
lclavicle -3.7172700000000001e-014 0 
lhumerus -9.4803899999999999 -7.2735399999999997 77.099699999999999 
lradius 47.124200000000002 
lwrist -18.380800000000001 
lhand -25.391400000000001 -12.301399999999999 
lfingers 7.1250200000000001 
lthumb 1.1335200000000001 17.6754 
rclavicle -3.7172700000000001e-014 0 
rhumerus -48.284599999999998 -44.019300000000001 -59.543100000000003 
rradius 14.541600000000001 
rwrist 32.078499999999998 
rhand -8.8467199999999995 10.0495 
rfingers 7.1250200000000001 
rthumb 17.094000000000001 -19.218499999999999 
408
root 12.142575000000001 8.2912499999999998 -6.0871499999999994 0.165293 29.1616 363.99700000000001 
lfemur 23.5855 4.9499199999999997 -16.264600000000002 
ltibia 19.9162 
lfoot -5.6537300000000004 -10.2004 
ltoes -29.1861 
rfemur -36.2256 -14.9269 20.770900000000001 
rtibia 41.299199999999999 
rfoot -5.8011999999999997 4.0010700000000003 
rtoes -4.6768799999999997 
lowerback -5.5491099999999998 -1.56168 -0.062523599999999999 
upperback 10.271699999999999 -1.9720500000000001 -0.50909400000000005 
thorax 14.3689 -0.86517699999999997 -0.86935399999999996 
lowerneck 1.53823 -3.1813899999999999 -1.0039199999999999 
upperneck 17.334199999999999 -4.8653199999999996 5.00908 
head 5.09917 -2.09653 1.53782 
lclavicle 6.3611099999999997e-015 -5.9635399999999999e-015 
lhumerus -10.328200000000001 -7.4615299999999998 77.793700000000001 
lradius 46.192999999999998 
lwrist -18.997299999999999 
lhand -24.761399999999998 -12.319699999999999 
lfingers 7.1250200000000001 
lthumb 1.74203 17.652899999999999 
rclavicle 6.3611099999999997e-015 -5.9635399999999999e-015 
rhumerus -46.9407 -42.924199999999999 -61.388199999999998 
rradius 14.7011 
rwrist 30.738299999999999 
rhand -8.5521499999999993 9.7979199999999995 
rfingers 7.1250200000000001 
rthumb 17.377500000000001 -19.4453 
409
root 12.170835 8.2951199999999989 -6.0110099999999997 -0.075513200000000003 29.0428 363.64800000000002 
lfemur 23.035 4.5088999999999997 -15.989699999999999 
ltibia 21.662600000000001 
lfoot -4.1869199999999998 -9.9194300000000002 
ltoes -29.300899999999999 
rfemur -35.7744 -15.0261 21.103000000000002 
rtibia 41.665300000000002 
rfoot -5.7384300000000001 4.1846199999999998 
rtoes -3.8595199999999998 
lowerback -5.5329100000000002 -1.5062800000000001 0.32468599999999997 
upperback 10.224399999999999 -1.9632400000000001 -0.37335099999999999 
thorax 14.292199999999999 -0.83025199999999999 -0.93223500000000004 
lowerneck 1.62493 -3.2084100000000002 -0.98538400000000004 
upperneck 17.363900000000001 -4.8857200000000001 4.8981700000000004 
head 5.0916899999999998 -2.11185 1.50091 
lclavicle -4.4726600000000002e-014 1.8288199999999999e-014 
lhumerus -11.0654 -7.79725 78.360699999999994 
lradius 45.165799999999997 
lwrist -19.287199999999999 
lhand -24.123000000000001 -12.5214 
lfingers 7.1250200000000001 
lthumb 2.35853 17.4453 
rclavicle -4.4726600000000002e-014 1.8288199999999999e-014 
rhumerus -45.919600000000003 -42.535499999999999 -62.621600000000001 
rradius 14.758800000000001 
rwrist 30.213999999999999 
rhand -8.2816799999999997 9.5746500000000001 
rfingers 7.1250200000000001 
rthumb 17.637799999999999 -19.645299999999999 
410
root 12.198915 8.3008350000000011 -5.9351849999999997 -0.37610900000000003 28.919 363.24700000000001 
lfemur 22.389299999999999 4.0918599999999996 -15.6501 
ltibia 23.605 
lfoot -2.5771500000000001 -9.58812 
ltoes -29.232900000000001 
rfemur -35.212499999999999 -15.0871 21.4573 
rtibia 41.927700000000002 
rfoot -5.7999799999999997 4.4074799999999996 
rtoes -3.0537200000000002 
lowerback -5.4632399999999999 -1.44258 0.77975899999999998 
upperback 10.207700000000001 -1.9497100000000001 -0.23941000000000001 
thorax 14.2171 -0.78552200000000005 -1.0333000000000001 
lowerneck 1.6121300000000001 -3.24017 -0.97837399999999997 
upperneck 17.406700000000001 -4.9198199999999996 4.8252300000000004 
head 5.1064800000000004 -2.13083 1.47529 
lclavicle -3.9756900000000002e-014 2.7829899999999999e-015 
lhumerus -11.7723 -7.8690699999999998 79.090100000000007 
lradius 44.066499999999998 
lwrist -19.8706 
lhand -23.576499999999999 -12.735799999999999 
lfingers 7.1250200000000001 
lthumb 2.8863799999999999 17.224399999999999 
rclavicle -3.9756900000000002e-014 2.7829899999999999e-015 
rhumerus -44.719200000000001 -41.8277 -64.155600000000007 
rradius 14.939399999999999 
rwrist 29.357800000000001 
rhand -7.9964000000000004 9.3040599999999998 
rfingers 7.1250200000000001 
rthumb 17.912299999999998 -19.891100000000002 
411
root 12.227040000000001 8.3202750000000005 -5.8571550000000006 -0.65057299999999996 28.7773 362.87099999999998 
lfemur 21.6053 3.6791800000000001 -15.3558 
ltibia 25.6846 
lfoot -0.93265100000000001 -9.2309300000000007 
ltoes -29.591699999999999 
rfemur -34.494100000000003 -15.064 21.7636 
rtibia 42.026200000000003 
rfoot -5.9777100000000001 4.5950699999999998 
rtoes -2.55606 
lowerback -5.4201899999999998 -1.37714 1.2008799999999999 
upperback 10.193 -1.92909 -0.104784 
thorax 14.1637 -0.74102699999999999 -1.1145499999999999 
lowerneck 1.6005499999999999 -3.2818800000000001 -1.00264 
upperneck 17.472899999999999 -4.96685 4.7506500000000003 
head 5.1293699999999998 -2.1576300000000002 1.4537500000000001 
lclavicle 5.4665799999999998e-015 7.9513899999999992e-015 
lhumerus -12.3949 -8.1174099999999996 79.703400000000002 
lradius 42.906700000000001 
lwrist -20.411300000000001 
lhand -23.015999999999998 -12.8375 
lfingers 7.1250200000000001 
lthumb 3.42761 17.114699999999999 
rclavicle 5.4665799999999998e-015 7.9513899999999992e-015 
rhumerus -43.582099999999997 -41.314 -65.455600000000004 
rradius 15.0641 
rwrist 28.779599999999999 
rhand -7.6753600000000004 9.1217299999999994 
rfingers 7.1250200000000001 
rthumb 18.2212 -20.044799999999999 
